<svg xmlns="http://www.w3.org/2000/svg" width="12" height="20" viewBox="0 0 12 20" fill="none">
<path d="M1.46846 9.30392L5.87914 16.6858C5.94844 16.8019 6.07333 16.8735 6.20856 16.8746C6.20959 16.8746 6.21088 16.8746 6.21192 16.8746C6.34586 16.8746 6.47049 16.8053 6.54134 16.6915L11.1325 9.30961C11.1439 9.29125 11.1537 9.27212 11.1615 9.25273C11.7104 8.35626 12 7.33233 12 6.28693C12 3.14531 9.44352 0.589355 6.30113 0.589355C3.15976 0.589355 0.603806 3.14531 0.603806 6.28693C0.603806 7.33259 0.893662 8.35678 1.44286 9.2535C1.4501 9.27082 1.45864 9.28763 1.46846 9.30392ZM6.30138 1.36532C9.01611 1.36532 11.2245 3.57325 11.2245 6.28719C11.2245 7.20899 10.9631 8.11218 10.4687 8.89874C10.4569 8.91736 10.447 8.93675 10.439 8.95692L6.21864 15.7418L2.16789 8.96235C2.1591 8.94037 2.1485 8.91891 2.13557 8.89848C1.64119 8.11192 1.37977 7.20899 1.37977 6.28693C1.37977 3.57325 3.5877 1.36532 6.30138 1.36532Z" fill="white"/>
<path d="M6.30216 8.40559C7.47012 8.40559 8.42036 7.45535 8.42036 6.28739C8.42036 5.11943 7.47012 4.16919 6.30216 4.16919C5.1342 4.16919 4.18396 5.11943 4.18396 6.28739C4.18396 7.45535 5.1342 8.40559 6.30216 8.40559ZM6.30216 4.9449C7.04245 4.9449 7.64465 5.54711 7.64465 6.28739C7.64465 7.02767 7.04245 7.62988 6.30216 7.62988C5.56188 7.62988 4.95967 7.02767 4.95967 6.28739C4.95941 5.54711 5.56188 4.9449 6.30216 4.9449Z" fill="white"/>
<path d="M11.2005 19.1021H1.40356C1.1892 19.1021 1.0157 19.2758 1.0157 19.4899C1.0157 19.704 1.1892 19.8778 1.40356 19.8778H11.2005C11.4146 19.8778 11.5883 19.704 11.5883 19.4899C11.5883 19.2758 11.4146 19.1021 11.2005 19.1021Z" fill="white"/>
</svg>