
<svg width="20" height="21" viewBox="0 0 20 21" fill="none" xmlns="http://www.w3.org/2000/svg">
<path d="M10.3514 6.35853C11.5606 6.43003 12.6309 7.05134 13.288 8.06352C13.9163 9.02811 14.0675 10.2102 13.7026 11.3068C13.6373 11.5026 13.7432 11.7144 13.939 11.7792C13.9781 11.7924 14.0177 11.7983 14.0571 11.7983C14.2138 11.7983 14.3595 11.6994 14.4116 11.5427C14.849 10.2289 14.6677 8.81187 13.9146 7.65595C13.1388 6.46067 11.823 5.69662 10.3955 5.61217C10.1875 5.60345 10.0126 5.75716 10.0004 5.96318C9.98818 6.16945 10.1454 6.34633 10.3514 6.35853Z" fill="white"/>
<path d="M10.8745 3.58472C12.8326 3.80968 14.5707 4.88413 15.6432 6.53207C16.6823 8.12968 16.9768 10.0967 16.4509 11.929C16.3938 12.1276 16.5084 12.3343 16.7067 12.3911C16.7413 12.4011 16.7757 12.4058 16.8101 12.4058C16.9723 12.4058 17.122 12.299 17.1688 12.1353C17.7545 10.0947 17.4267 7.90372 16.2695 6.1245C15.0752 4.28923 13.1401 3.09296 10.9597 2.84234C10.7587 2.81867 10.5696 2.9659 10.546 3.17093C10.5223 3.37596 10.6693 3.56105 10.8745 3.58472Z" fill="white"/>
<path d="M7.84375 19.3339C8.83401 19.8885 9.80932 20.167 10.7179 20.167C11.4784 20.1667 12.1922 19.9714 12.8274 19.5793L15.1689 18.1349C15.2533 18.0828 15.3136 17.9996 15.3366 17.903C15.3595 17.8066 15.3428 17.7049 15.2907 17.6205L13.2611 14.3311C13.2091 14.2469 13.1256 14.1866 13.0292 14.1637C12.932 14.141 12.8309 14.1574 12.7467 14.2095L10.3875 15.6656C10.0248 15.8893 9.55945 15.9608 9.11178 15.8624C8.66411 15.7638 8.28196 15.5042 8.06323 15.1494L4.8568 9.95304C4.39319 9.20169 4.62686 8.21318 5.37771 7.74957C5.37771 7.74957 5.37796 7.74957 5.37796 7.74932L7.82657 6.23765C8.0022 6.12929 8.0565 5.8991 7.94814 5.72347L5.9183 2.43483C5.80993 2.2592 5.5795 2.20414 5.40412 2.31301L2.9575 3.82318C0.230629 5.50624 0.326292 9.92439 3.19068 14.5675C4.5038 16.6965 6.15646 18.3893 7.84375 19.3339ZM3.35037 4.45893L5.47885 3.14532L7.11632 5.79796L4.98559 7.11331C4.9851 7.11356 4.98485 7.11381 4.9846 7.11406C3.88398 7.79441 3.54119 9.24354 4.22104 10.3452L7.42747 15.5413C7.75158 16.0672 8.30712 16.4501 8.95135 16.5921C9.58685 16.7314 10.2537 16.626 10.7801 16.3011L12.8212 15.0413L14.4584 17.6945L12.4348 18.9428C10.957 19.8546 9.32104 19.304 8.20897 18.6815C6.63079 17.7976 5.07428 16.1972 3.82669 14.1749C1.19348 9.90645 0.997671 5.91106 3.35037 4.45893Z" fill="white"/>
<path d="M11.3855 1.14192C13.9861 1.50339 16.2984 2.9732 17.7299 5.17468C19.1322 7.32883 19.5527 9.98943 18.884 12.4742C18.8302 12.6735 18.9485 12.8785 19.1478 12.932C19.1802 12.9408 19.2131 12.945 19.2453 12.945C19.4099 12.945 19.5611 12.8354 19.6057 12.6685C20.3297 9.97897 19.8743 7.09889 18.3564 4.76712C16.8069 2.38428 14.3037 0.793147 11.4889 0.401779C11.2853 0.374624 11.0955 0.515876 11.0674 0.720404C11.0387 0.924683 11.1812 1.11352 11.3855 1.14192Z" fill="white"/>
</svg>
